<?xml version="1.0" encoding="UTF-8" standalone="no"?>
<svg
   width="1047"
   height="1078"
   xml:space="preserve"
   overflow="hidden"
   version="1.1"
   id="svg194"
   sodipodi:docname="PrusaSlicer.svg"
   inkscape:version="1.2.2 (732a01da63, 2022-12-09)"
   xmlns:inkscape="http://www.inkscape.org/namespaces/inkscape"
   xmlns:sodipodi="http://sodipodi.sourceforge.net/DTD/sodipodi-0.dtd"
   xmlns="http://www.w3.org/2000/svg"
   xmlns:svg="http://www.w3.org/2000/svg"><sodipodi:namedview
     id="namedview196"
     pagecolor="#ffffff"
     bordercolor="#000000"
     borderopacity="0.25"
     inkscape:showpageshadow="2"
     inkscape:pageopacity="0.0"
     inkscape:pagecheckerboard="0"
     inkscape:deskcolor="#d1d1d1"
     showgrid="false"
     inkscape:zoom="0.75510204"
     inkscape:cx="523.77027"
     inkscape:cy="539"
     inkscape:window-width="1920"
     inkscape:window-height="1017"
     inkscape:window-x="-8"
     inkscape:window-y="-8"
     inkscape:window-maximized="1"
     inkscape:current-layer="svg194" /><defs
     id="defs180"><clipPath
       id="clip0"><rect
         x="2138"
         y="1006"
         width="1047"
         height="1078"
         id="rect177" /></clipPath></defs><g
     clip-path="url(#clip0)"
     transform="translate(-2138 -1006)"
     id="g192"><path
       d="M2308.5 1278C2308.5 1216.97 2357.97 1167.5 2419 1167.5L2872 1167.5C2933.03 1167.5 2982.5 1216.97 2982.5 1278L2982.5 1720C2982.5 1781.03 2933.03 1830.5 2872 1830.5L2419 1830.5C2357.97 1830.5 2308.5 1781.03 2308.5 1720Z"
       stroke="#404040"
       stroke-width="4.58333"
       stroke-miterlimit="8"
       fill="#404040"
       fill-rule="evenodd"
       id="path182" /><g
       aria-label="F"
       transform="matrix(1 0 0 1 2374.99 1472)"
       id="text184"
       style="font-weight:700;font-size:367px;font-family:Orbitron, Orbitron_MSFontService, sans-serif;fill:#ffffff"><path
         d="m 21.286,0 v -264.24 h 243.321 v 48.811 H 70.097 v 58.72 h 156.342 v 49.178 H 70.097 V 0 Z"
         id="path198" /></g><g
       aria-label="3"
       transform="matrix(1 0 0 1 2640.25 1472)"
       id="text186"
       style="font-weight:700;font-size:367px;font-family:Orbitron, Orbitron_MSFontService, sans-serif;fill:#ff6200"><path
         d="M 70.464,0 Q 56.151,0 44.774,-6.973 33.397,-13.946 26.424,-25.323 19.451,-36.7 19.451,-50.646 v -15.781 h 48.077 v 13.946 q 0,1.835 1.101,3.303 1.468,1.101 3.303,1.101 h 156.709 q 1.835,0 3.303,-1.101 1.468,-1.468 1.468,-3.303 v -52.848 q 0,-1.835 -1.468,-2.936 -1.468,-1.468 -3.303,-1.468 H 64.959 v -48.077 h 153.406 q 1.835,0 2.936,-1.101 1.468,-1.468 1.468,-3.303 v -49.545 q 0,-1.835 -1.468,-2.936 -1.101,-1.468 -2.936,-1.468 H 71.932 q -1.835,0 -3.303,1.468 -1.101,1.101 -1.101,2.936 v 17.249 H 19.451 v -19.084 q 0,-14.313 6.973,-25.69 6.973,-11.377 18.35,-17.983 11.377,-6.973 25.69,-6.973 H 220.2 q 14.313,0 25.69,6.973 11.377,6.606 17.983,17.983 6.973,11.377 6.973,25.69 v 53.582 q 0,4.404 -0.734,9.175 -0.734,4.404 -2.202,8.441 6.606,6.973 9.909,16.515 3.67,9.175 3.67,18.717 v 56.518 q 0,13.946 -6.973,25.323 -6.973,11.377 -18.35,18.35 Q 244.789,0 230.843,0 H 70.464 Z"
         id="path201" /></g><g
       aria-label="S"
       transform="matrix(1 0 0 1 2358.15 1779)"
       id="text188"
       style="font-weight:700;font-size:367px;font-family:Orbitron, Orbitron_MSFontService, sans-serif;fill:#ff6200"><path
         d="m 70.464,0 q -13.946,0 -25.69,-6.973 -11.377,-6.973 -18.35,-18.35 -6.973,-11.744 -6.973,-25.69 v -20.185 h 48.444 v 17.983 q 0,1.835 1.101,3.303 1.468,1.101 3.303,1.101 h 158.177 q 1.835,0 2.936,-1.101 1.468,-1.468 1.468,-3.303 v -50.279 q 0,-1.835 -1.468,-2.936 -1.101,-1.101 -2.936,-1.101 H 70.464 q -13.946,0 -25.69,-6.973 -11.377,-6.973 -18.35,-18.35 -6.973,-11.744 -6.973,-26.057 v -54.316 q 0,-13.946 6.973,-25.323 6.973,-11.744 18.35,-18.717 11.744,-6.973 25.69,-6.973 h 162.214 q 13.946,0 25.323,6.973 11.744,6.973 18.717,18.717 6.973,11.377 6.973,25.323 v 20.185 H 234.88 v -17.983 q 0,-1.835 -1.468,-2.936 -1.101,-1.468 -2.936,-1.468 H 72.299 q -1.835,0 -3.303,1.468 -1.101,1.101 -1.101,2.936 v 50.279 q 0,1.835 1.101,2.936 1.468,1.101 3.303,1.101 h 160.379 q 13.946,0 25.323,6.973 11.744,6.973 18.717,18.717 6.973,11.377 6.973,25.69 v 54.316 q 0,13.946 -6.973,25.69 -6.973,11.377 -18.717,18.35 Q 246.624,0 232.678,0 Z"
         id="path204" /></g><g
       aria-label="3"
       transform="matrix(1 0 0 1 2661.23 1779)"
       id="text190"
       style="font-weight:700;font-size:367px;font-family:Orbitron, Orbitron_MSFontService, sans-serif;fill:#ffffff"><path
         d="M 70.464,0 Q 56.151,0 44.774,-6.973 33.397,-13.946 26.424,-25.323 19.451,-36.7 19.451,-50.646 v -15.781 h 48.077 v 13.946 q 0,1.835 1.101,3.303 1.468,1.101 3.303,1.101 h 156.709 q 1.835,0 3.303,-1.101 1.468,-1.468 1.468,-3.303 v -52.848 q 0,-1.835 -1.468,-2.936 -1.468,-1.468 -3.303,-1.468 H 64.959 v -48.077 h 153.406 q 1.835,0 2.936,-1.101 1.468,-1.468 1.468,-3.303 v -49.545 q 0,-1.835 -1.468,-2.936 -1.101,-1.468 -2.936,-1.468 H 71.932 q -1.835,0 -3.303,1.468 -1.101,1.101 -1.101,2.936 v 17.249 H 19.451 v -19.084 q 0,-14.313 6.973,-25.69 6.973,-11.377 18.35,-17.983 11.377,-6.973 25.69,-6.973 H 220.2 q 14.313,0 25.69,6.973 11.377,6.606 17.983,17.983 6.973,11.377 6.973,25.69 v 53.582 q 0,4.404 -0.734,9.175 -0.734,4.404 -2.202,8.441 6.606,6.973 9.909,16.515 3.67,9.175 3.67,18.717 v 56.518 q 0,13.946 -6.973,25.323 -6.973,11.377 -18.35,18.35 Q 244.789,0 230.843,0 H 70.464 Z"
         id="path207" /></g></g></svg>
