<svg width="1047" height="1078" xmlns="http://www.w3.org/2000/svg" xmlns:xlink="http://www.w3.org/1999/xlink" xml:space="preserve" overflow="hidden"><defs><clipPath id="clip0"><rect x="2138" y="1006" width="1047" height="1078"/></clipPath></defs><g clip-path="url(#clip0)" transform="translate(-2138 -1006)"><path d="M2308.5 1278C2308.5 1216.97 2357.97 1167.5 2419 1167.5L2872 1167.5C2933.03 1167.5 2982.5 1216.97 2982.5 1278L2982.5 1720C2982.5 1781.03 2933.03 1830.5 2872 1830.5L2419 1830.5C2357.97 1830.5 2308.5 1781.03 2308.5 1720Z" stroke="#404040" stroke-width="4.58333" stroke-miterlimit="8" fill="#404040" fill-rule="evenodd"/><text fill="#FFFFFF" font-family="Orbitron,Orbitron_MSFontService,sans-serif" font-weight="700" font-size="367" transform="matrix(1 0 0 1 2374.99 1472)">F</text><text fill="#FF6200" font-family="Orbitron,Orbitron_MSFontService,sans-serif" font-weight="700" font-size="367" transform="matrix(1 0 0 1 2640.25 1472)">3</text><text fill="#FF6200" font-family="Orbitron,Orbitron_MSFontService,sans-serif" font-weight="700" font-size="367" transform="matrix(1 0 0 1 2358.15 1779)">S</text><text fill="#FFFFFF" font-family="Orbitron,Orbitron_MSFontService,sans-serif" font-weight="700" font-size="367" transform="matrix(1 0 0 1 2661.23 1779)">3</text></g></svg>